<?xml version="1.0" encoding="UTF-8"?>
<svg id="Vrstva_1" xmlns="http://www.w3.org/2000/svg" version="1.1" viewBox="0 0 715 151.53">
  <!-- Generator: Adobe Illustrator 29.4.0, SVG Export Plug-In . SVG Version: 2.1.0 Build 152)  -->
  <defs>
    <style>
      .st0 {
        fill: #3c3c3b;
      }

      .st1 {
        font-family: Avenir-Book, Avenir;
      }

      .st1, .st2, .st3 {
        isolation: isolate;
      }

      .st1, .st3 {
        font-size: 12px;
      }

      .st4 {
        fill: #1d1d1b;
      }

      .st5 {
        fill: #949494;
      }

      .st3 {
        font-family: Avenir-Black, Avenir;
        font-weight: 800;
      }
    </style>
  </defs>
  <g>
    <g class="st2">
      <path d="M115.71,113.35h1.62v10.43h-1.62v-10.43ZM117.4,113.35h.55l1.01,10.43h-.55l-1.01-10.43ZM120.04,113.35h.55l-1.01,10.43h-.55l1.01-10.43ZM120.65,113.35h1.64v10.43h-1.64v-10.43Z"/>
      <path d="M128.44,113.35v7.97c0,.57.51.97.98.97s.98-.4.98-.97v-7.97h1.64v8.03c0,1.4-1.27,2.49-2.62,2.49s-2.62-1.09-2.62-2.49v-8.03h1.64Z"/>
      <path d="M138.74,113.35v10.43h-1.64v-10.43h1.64ZM139.36,113.35l1.55,10.43h-.57l-1.55-10.43h.57ZM142.61,113.35v10.43h-1.64v-10.43h1.64Z"/>
      <path d="M149.45,123.2v-9.27h-1.4v-.58h4.46v.58h-1.42v9.27h1.42v.58h-4.46v-.58h1.4Z"/>
    </g>
    <g class="st2">
      <path d="M116.52,136.28v-5.63c0-1.43,1.16-2.49,2.58-2.49s2.58,1.06,2.58,2.49v.39h-.81v-.37c0-.97-.85-1.73-1.77-1.73s-1.77.76-1.77,1.73v5.61c0,.97.82,1.73,1.77,1.73s1.77-.76,1.77-1.73v-.34h.81v.36c0,1.47-1.15,2.49-2.58,2.49s-2.58-1.01-2.58-2.49Z"/>
      <path d="M127.14,128.25h4.98v.75h-4.17v3.84h3.99v.75h-3.99v4.35h4.17v.75h-4.98v-10.43Z"/>
      <path d="M140.23,128.25c1.36,0,2.49,1.13,2.49,2.49v1.04c0,1.27-.97,2.3-2.19,2.4l2.55,4.5h-.92l-2.47-4.41h-1.36v4.41h-.81v-10.43h2.71ZM141.93,131.69v-.94c0-.98-.82-1.76-1.77-1.76h-1.83v4.52h1.83c1,0,1.77-.75,1.77-1.82Z"/>
      <path d="M149.88,138.16v-9.39h-1.82v-.52h4.44v.52h-1.82v9.39h1.82v.52h-4.44v-.52h1.82Z"/>
      <path d="M157.53,129v-.75h6.38v.75h-2.79v9.69h-.81v-9.69h-2.79,0Z"/>
      <path d="M173.37,132.84v.75h-4.44v-.75h4.44Z"/>
      <path d="M179,136.28v-.36h.81v.34c0,.97.85,1.73,1.79,1.73s1.76-.76,1.76-1.73v-.61c0-1.24-1.01-1.58-1.97-1.79-.91-.21-2.38-.76-2.38-2.5v-.72c0-1.43,1.15-2.49,2.58-2.49s2.58,1.06,2.58,2.49v.39h-.81v-.37c0-.97-.85-1.73-1.77-1.73s-1.77.76-1.77,1.73v.7c0,1.22,1.03,1.57,1.94,1.77.98.22,2.41.8,2.41,2.5v.64c0,1.47-1.15,2.49-2.58,2.49s-2.58-1.01-2.58-2.49h0Z"/>
      <path d="M189.54,136.28v-5.63c0-1.43,1.16-2.49,2.58-2.49s2.58,1.06,2.58,2.49v.39h-.81v-.37c0-.97-.85-1.73-1.77-1.73s-1.77.76-1.77,1.73v5.61c0,.97.82,1.73,1.77,1.73s1.77-.76,1.77-1.73v-.34h.81v.36c0,1.47-1.15,2.49-2.58,2.49s-2.58-1.01-2.58-2.49Z"/>
    </g>
  </g>
  <g>
    <path class="st0" d="M553.25,116.02v.75h-3.69v-.75h1.42v-4.13h-1.4v-.76h3.64v.76h-1.4v4.13h1.42Z"/>
    <path class="st0" d="M556.67,111.89v4.88h-.86v-4.88h-1.67v-.76h4.2v.76h-1.67Z"/>
    <path class="st0" d="M561.71,115.59v1.18h-.8v-1.18h-2.55l-.09-.56c.3-.63.68-1.3,1.13-2.01.45-.71.91-1.34,1.38-1.9h.93v3.74h.82v.72h-.82,0ZM559.13,114.87h1.76v-2.87c-.34.45-.66.92-.96,1.41-.3.49-.57.98-.8,1.46h0Z"/>
    <path class="st0" d="M566.95,116.02v.75h-3.69v-.75h1.42v-4.13h-1.4v-.76h3.64v.76h-1.4v4.13h1.42Z"/>
    <path class="st0" d="M571.63,116.77h-1.05l-1.82-4.5v4.5h-.76v-5.64h1.05l1.83,4.51v-4.51h.76v5.64h0Z"/>
    <path class="st0" d="M576.52,116.77h-1.05l-1.82-4.5v4.5h-.76v-5.64h1.05l1.83,4.51v-4.51h.76v5.64h0Z"/>
    <path class="st0" d="M581.69,113.97c0,.93-.18,1.65-.54,2.14-.36.49-.87.74-1.55.74s-1.21-.24-1.56-.73-.52-1.22-.52-2.2c0-.93.18-1.64.54-2.14s.87-.74,1.53-.74c.7,0,1.22.24,1.56.73.35.49.52,1.22.52,2.2ZM578.43,113.92c0,.74.1,1.29.29,1.64.19.35.49.52.9.52s.71-.17.9-.51.29-.87.29-1.59-.1-1.27-.29-1.62c-.19-.35-.49-.53-.9-.53s-.71.17-.9.51-.28.87-.28,1.59Z"/>
    <path class="st0" d="M586.52,111.13l-1.55,5.64h-1.23l-1.55-5.64h.9l1.28,4.95,1.28-4.95h.88Z"/>
    <path class="st0" d="M591.09,116.77h-.88l-.41-1.5h-1.91l-.41,1.5h-.85l1.62-5.64h1.23l1.62,5.64h0ZM588.85,111.76l-.76,2.78h1.52l-.75-2.78h0Z"/>
    <path class="st0" d="M593.64,111.89v4.88h-.86v-4.88h-1.67v-.76h4.2v.76h-1.67Z"/>
    <path class="st0" d="M599.89,116.02v.75h-3.69v-.75h1.42v-4.13h-1.4v-.76h3.64v.76h-1.4v4.13h1.42Z"/>
    <path class="st0" d="M604.77,113.97c0,.93-.18,1.65-.54,2.14-.36.49-.87.74-1.55.74s-1.21-.24-1.56-.73-.52-1.22-.52-2.2c0-.93.18-1.64.54-2.14s.87-.74,1.53-.74c.7,0,1.22.24,1.56.73.35.49.52,1.22.52,2.2ZM601.51,113.92c0,.74.1,1.29.29,1.64.19.35.49.52.9.52s.71-.17.9-.51.29-.87.29-1.59-.1-1.27-.29-1.62c-.19-.35-.49-.53-.9-.53s-.71.17-.9.51-.28.87-.28,1.59Z"/>
    <path class="st0" d="M609.44,116.77h-1.05l-1.82-4.5v4.5h-.76v-5.64h1.05l1.83,4.51v-4.51h.76v5.64h0Z"/>
    <path class="st0" d="M614.2,115.26c0,.48-.17.87-.51,1.16s-.79.43-1.36.43c-.32,0-.65-.05-.98-.14-.34-.09-.64-.22-.91-.39l.37-.69c.27.16.54.28.79.36.25.08.5.11.75.11.31,0,.55-.07.72-.2s.26-.33.26-.59c0-.19-.07-.35-.21-.5s-.44-.32-.91-.52c-.31-.14-.55-.25-.69-.34-.15-.09-.27-.18-.38-.27-.17-.15-.29-.32-.37-.5-.08-.18-.12-.39-.12-.61,0-.45.16-.82.48-1.11.32-.28.74-.43,1.26-.43.3,0,.6.04.89.12.29.08.57.2.85.36l-.34.69c-.25-.14-.49-.24-.72-.31s-.45-.1-.67-.1c-.28,0-.49.07-.65.2s-.24.31-.24.53c0,.19.07.35.21.49.14.14.44.32.91.53.31.15.54.26.69.34.15.08.27.17.38.26.17.15.3.32.38.5.08.18.12.38.12.6h0Z"/>
    <path class="st0" d="M553.23,127.21h-1.05l-1.82-4.5v4.5h-.76v-5.64h1.05l1.83,4.51v-4.51h.76v5.64h0Z"/>
    <path class="st0" d="M558.54,127.21h-.88l-.41-1.5h-1.91l-.41,1.5h-.85l1.62-5.64h1.23l1.62,5.64h0ZM556.3,122.2l-.76,2.78h1.52l-.75-2.78h0Z"/>
    <path class="st0" d="M561.09,122.33v4.88h-.86v-4.88h-1.67v-.76h4.2v.76h-1.67Z"/>
    <path class="st0" d="M567.34,126.47v.75h-3.69v-.75h1.42v-4.13h-1.4v-.76h3.64v.76h-1.4v4.13h1.42Z"/>
    <path class="st0" d="M572.22,124.42c0,.93-.18,1.65-.54,2.14-.36.49-.87.74-1.55.74s-1.21-.24-1.56-.73-.52-1.22-.52-2.2c0-.93.18-1.64.54-2.14s.87-.74,1.53-.74c.7,0,1.22.24,1.56.73.35.49.52,1.22.52,2.2ZM568.96,124.37c0,.74.1,1.29.29,1.64.19.35.49.52.9.52s.71-.17.9-.51.29-.87.29-1.59-.1-1.27-.29-1.62c-.19-.35-.49-.53-.9-.53s-.71.17-.9.51-.28.87-.28,1.59Z"/>
    <path class="st0" d="M576.88,127.21h-1.05l-1.82-4.5v4.5h-.76v-5.64h1.05l1.83,4.51v-4.51h.76v5.64h0Z"/>
    <path class="st0" d="M582.2,127.21h-.88l-.41-1.5h-1.91l-.41,1.5h-.85l1.62-5.64h1.23l1.62,5.64h0ZM579.95,122.2l-.76,2.78h1.52l-.75-2.78h0Z"/>
    <path class="st0" d="M584.03,126.47h2.6v.75h-3.47v-5.64h.87v4.89h0Z"/>
    <path class="st0" d="M594.02,125.71c0,.48-.17.87-.51,1.16s-.79.43-1.36.43c-.32,0-.65-.05-.98-.14-.34-.09-.64-.22-.91-.39l.37-.69c.27.16.54.28.79.36.25.08.5.11.75.11.31,0,.55-.07.72-.2s.26-.33.26-.59c0-.19-.07-.35-.21-.5s-.44-.32-.91-.52c-.31-.14-.55-.25-.69-.34-.15-.09-.27-.18-.38-.27-.17-.15-.29-.32-.37-.5-.08-.18-.12-.39-.12-.61,0-.45.16-.82.48-1.11.32-.28.74-.43,1.26-.43.3,0,.6.04.89.12.29.08.57.2.85.36l-.34.69c-.25-.14-.49-.24-.72-.31s-.45-.1-.67-.1c-.28,0-.49.07-.65.2s-.24.31-.24.53c0,.19.07.35.21.49.14.14.44.32.91.53.31.15.54.26.69.34.15.08.27.17.38.26.17.15.3.32.38.5.08.18.12.38.12.6h0Z"/>
    <path class="st0" d="M596.93,126.53c.33,0,.58-.09.75-.28.18-.19.26-.45.26-.79v-3.88h.84v3.88c0,.56-.17,1-.51,1.34s-.79.51-1.35.51-1.02-.17-1.37-.51-.52-.78-.52-1.34v-3.88h.87v3.88c0,.34.09.61.26.79.18.19.43.28.75.28h0Z"/>
    <path class="st0" d="M600.92,125.06v2.15h-.87v-5.64h1.88c.58,0,1.04.15,1.38.46s.51.72.51,1.26c0,.56-.17,1-.51,1.31s-.8.47-1.38.47h-1.01ZM602.95,123.31c0-.31-.09-.55-.28-.72-.19-.17-.44-.26-.77-.26h-.98v1.98h.98c.34,0,.6-.09.77-.26.18-.17.27-.42.27-.75h0Z"/>
    <path class="st0" d="M605.74,126.47h2.51v.75h-3.38v-5.64h3.38v.76h-2.51v1.64h2.13v.76h-2.13v1.73Z"/>
    <path class="st0" d="M610.21,124.91v2.31h-.87v-5.64h1.89c.57,0,1.02.15,1.35.43.33.29.5.69.5,1.2,0,.4-.1.74-.29,1.01s-.47.46-.83.57l1.32,2.43h-.98l-1.21-2.31h-.9,0ZM612.22,123.23c0-.28-.09-.51-.26-.66-.17-.16-.42-.23-.72-.23h-1.02v1.82h1.02c.31,0,.56-.08.73-.24s.26-.39.26-.68h0Z"/>
    <path class="st0" d="M616.32,127.3c-.75,0-1.32-.25-1.71-.75s-.59-1.23-.59-2.18c0-.9.2-1.6.61-2.12.41-.51.97-.77,1.69-.77.29,0,.56.04.81.11.25.07.5.19.74.34l-.39.69c-.19-.12-.39-.21-.58-.27-.19-.06-.38-.09-.57-.09-.47,0-.83.18-1.07.53s-.36.87-.36,1.57.12,1.27.35,1.62.59.54,1.08.54c.22,0,.42-.03.61-.09.18-.06.39-.16.63-.31l.37.64c-.24.17-.5.31-.78.4-.28.09-.57.14-.86.14h0Z"/>
    <path class="st0" d="M622.66,124.42c0,.93-.18,1.65-.54,2.14-.36.49-.87.74-1.55.74s-1.21-.24-1.56-.73c-.35-.49-.52-1.22-.52-2.2,0-.93.18-1.64.54-2.14s.87-.74,1.53-.74c.7,0,1.22.24,1.56.73.35.49.52,1.22.52,2.2ZM619.39,124.37c0,.74.1,1.29.29,1.64s.49.52.9.52.71-.17.9-.51.29-.87.29-1.59-.1-1.27-.29-1.62c-.19-.35-.49-.53-.9-.53s-.71.17-.9.51c-.19.34-.28.87-.28,1.59Z"/>
    <path class="st0" d="M624.32,122.76v4.46h-.76v-5.64h1l1.08,2.84,1.06-2.84h.99v5.64h-.76v-4.46l-.99,2.58h-.62l-.99-2.58h0Z"/>
    <path class="st0" d="M629.73,125.06v2.15h-.87v-5.64h1.88c.58,0,1.04.15,1.38.46s.51.72.51,1.26c0,.56-.17,1-.51,1.31s-.8.47-1.38.47h-1.01ZM631.76,123.31c0-.31-.09-.55-.28-.72-.19-.17-.44-.26-.77-.26h-.98v1.98h.98c.34,0,.6-.09.77-.26s.27-.42.27-.75h0Z"/>
    <path class="st0" d="M635.43,126.53c.33,0,.58-.09.75-.28.18-.19.26-.45.26-.79v-3.88h.84v3.88c0,.56-.17,1-.51,1.34s-.79.51-1.35.51-1.02-.17-1.37-.51-.52-.78-.52-1.34v-3.88h.87v3.88c0,.34.09.61.27.79.18.19.43.28.75.28Z"/>
    <path class="st0" d="M640.71,122.33v4.88h-.86v-4.88h-1.67v-.76h4.2v.76h-1.67Z"/>
    <path class="st0" d="M646.96,126.47v.75h-3.69v-.75h1.42v-4.13h-1.4v-.76h3.64v.76h-1.4v4.13h1.42,0Z"/>
    <path class="st0" d="M651.64,127.21h-1.05l-1.82-4.5v4.5h-.76v-5.64h1.05l1.83,4.51v-4.51h.76v5.64h0Z"/>
    <path class="st0" d="M655.02,127.3c-.76,0-1.34-.25-1.73-.74-.4-.5-.6-1.23-.6-2.19,0-.91.2-1.62.61-2.12s.97-.76,1.7-.76c.29,0,.55.03.8.1.24.06.49.17.72.3l-.38.71c-.18-.1-.36-.18-.55-.24-.19-.05-.38-.08-.57-.08-.49,0-.85.17-1.08.52-.24.35-.36.87-.36,1.58s.12,1.27.36,1.62.6.54,1.1.54c.15,0,.28-.01.41-.03.12-.02.25-.06.37-.11v-1.91h.82v2.32c-.22.16-.48.28-.76.37-.29.09-.57.14-.86.14h0Z"/>
    <path class="st0" d="M551.83,137.75c-.75,0-1.32-.25-1.71-.75s-.59-1.23-.59-2.18c0-.9.2-1.6.61-2.12.41-.51.97-.77,1.69-.77.29,0,.56.04.81.11.25.07.5.19.75.34l-.39.69c-.19-.12-.39-.21-.58-.27-.19-.06-.38-.09-.57-.09-.47,0-.83.18-1.07.53s-.36.87-.36,1.57.12,1.27.35,1.62.59.54,1.08.54c.22,0,.42-.03.61-.09.18-.06.39-.16.63-.31l.37.64c-.24.17-.5.31-.78.4-.28.09-.57.14-.86.14h0Z"/>
    <path class="st0" d="M555.38,136.91h2.51v.75h-3.38v-5.64h3.38v.76h-2.51v1.64h2.13v.76h-2.13v1.73Z"/>
    <path class="st0" d="M562.61,137.66h-1.05l-1.82-4.5v4.5h-.76v-5.64h1.05l1.83,4.51v-4.51h.76v5.64h0Z"/>
    <path class="st0" d="M566.05,132.78v4.88h-.86v-4.88h-1.67v-.76h4.2v.76h-1.67Z"/>
    <path class="st0" d="M569.61,136.91h2.51v.75h-3.38v-5.64h3.38v.76h-2.51v1.64h2.13v.76h-2.13v1.73Z"/>
    <path class="st0" d="M574.08,135.35v2.31h-.87v-5.64h1.89c.57,0,1.02.15,1.35.43.33.29.5.69.5,1.2,0,.4-.1.74-.29,1.01s-.47.46-.83.57l1.32,2.43h-.98l-1.21-2.31h-.9,0ZM576.08,133.67c0-.28-.09-.51-.26-.66-.17-.16-.42-.23-.72-.23h-1.02v1.82h1.02c.31,0,.56-.08.73-.24s.26-.39.26-.68h0Z"/>
    <rect class="st0" x="542.85" y="111.13" width=".88" height="26.59"/>
    <rect class="st0" x="465.7" y="121.48" width=".88" height="10.45"/>
    <rect class="st0" x="475.86" y="124.34" width=".88" height="10.46"/>
    <rect class="st0" x="479.25" y="121.48" width=".88" height="10.45"/>
    <rect class="st0" x="472.48" y="127.22" width=".88" height="10.46"/>
    <rect class="st0" x="469.09" y="124.34" width=".88" height="10.46"/>
    <path class="st0" d="M469.94,111.13l-1.49,5.64h-1.46l-1.49-5.64h1.07l1.17,4.8,1.16-4.8h1.04,0Z"/>
    <path class="st0" d="M474.92,115.22c0,.5-.17.9-.51,1.19s-.81.44-1.4.44c-.33,0-.66-.05-1.01-.14s-.66-.22-.94-.39l.41-.85c.28.16.55.28.8.36.25.08.51.12.76.12.27,0,.48-.06.62-.17s.22-.28.22-.49c0-.16-.06-.31-.19-.43-.13-.13-.41-.28-.84-.47-.33-.14-.56-.25-.72-.34-.15-.09-.28-.18-.39-.28-.17-.15-.29-.32-.37-.51-.08-.19-.12-.4-.12-.63,0-.47.17-.85.5-1.14.33-.29.77-.44,1.31-.44.31,0,.62.04.92.13.3.08.59.2.87.36l-.38.84c-.26-.14-.51-.24-.74-.31s-.46-.1-.67-.1c-.23,0-.42.05-.55.17s-.2.25-.2.43c0,.16.06.31.19.43.13.13.41.29.85.49.31.15.55.26.69.35.15.09.27.18.38.28.17.15.3.31.38.5.08.19.12.39.12.62h0Z"/>
    <path class="st0" d="M476.51,111.13h1.82c.57,0,1.02.12,1.34.37.33.24.49.59.49,1.03,0,.3-.07.55-.22.77-.15.22-.35.39-.62.51.35.1.61.27.79.49.18.22.27.5.27.83,0,.51-.17.91-.52,1.21s-.81.44-1.39.44h-1.97v-5.64h0ZM479.1,112.69c0-.23-.07-.4-.22-.51-.15-.11-.37-.17-.67-.17h-.66v1.44h.66c.3,0,.52-.06.67-.19.15-.13.22-.32.22-.57h0ZM479.32,115.07c0-.27-.08-.47-.25-.6-.17-.13-.44-.19-.8-.19h-.72v1.61h.77c.34,0,.59-.07.75-.2.17-.14.25-.34.25-.62h0Z"/>
    <path class="st0" d="M488.97,111.87v4.88h-.86v-4.88h-1.67v-.76h4.2v.76h-1.67Z"/>
    <path class="st0" d="M492.96,116h2.51v.75h-3.38v-5.64h3.38v.76h-2.51v1.64h2.13v.76h-2.13v1.73Z"/>
    <path class="st0" d="M499.14,116.84c-.75,0-1.32-.25-1.71-.75s-.59-1.23-.59-2.18c0-.9.2-1.6.61-2.12.41-.51.97-.77,1.69-.77.29,0,.56.04.81.11.25.07.5.19.75.34l-.39.69c-.19-.12-.39-.21-.58-.27-.19-.06-.38-.09-.57-.09-.47,0-.83.18-1.07.53s-.36.87-.36,1.57.12,1.27.35,1.62c.23.36.59.54,1.08.54.22,0,.42-.03.61-.09.18-.06.39-.16.63-.31l.37.64c-.24.17-.5.31-.78.4s-.57.14-.86.14h0Z"/>
    <path class="st0" d="M503.15,114.19v2.56h-.87v-5.64h.87v2.32h2.03v-2.32h.87v5.64h-.87v-2.56h-2.03Z"/>
    <path class="st0" d="M511.5,116.75h-1.05l-1.82-4.5v4.5h-.76v-5.64h1.05l1.83,4.51v-4.51h.76v5.64h0Z"/>
    <path class="st0" d="M516.74,116v.75h-3.69v-.75h1.42v-4.13h-1.4v-.76h3.64v.76h-1.4v4.13h1.42,0Z"/>
    <path class="st0" d="M520.27,116.84c-.75,0-1.32-.25-1.71-.75s-.59-1.23-.59-2.18c0-.9.2-1.6.61-2.12.41-.51.97-.77,1.69-.77.29,0,.56.04.81.11.25.07.5.19.74.34l-.39.69c-.19-.12-.39-.21-.58-.27-.19-.06-.38-.09-.57-.09-.47,0-.83.18-1.07.53s-.36.87-.36,1.57.12,1.27.35,1.62.59.54,1.08.54c.22,0,.42-.03.61-.09.18-.06.39-.16.63-.31l.37.64c-.24.17-.5.31-.78.4-.28.09-.57.14-.86.14h0Z"/>
    <path class="st0" d="M527.4,116.75h-.88l-.41-1.5h-1.91l-.41,1.5h-.85l1.62-5.64h1.23l1.62,5.64h0ZM525.16,111.74l-.76,2.78h1.52l-.75-2.78h0Z"/>
    <path class="st0" d="M529.75,116h2.6v.75h-3.47v-5.64h.87v4.89h0Z"/>
    <path class="st0" d="M488.56,126.51c.33,0,.58-.09.75-.28.18-.19.27-.45.27-.79v-3.88h.84v3.88c0,.56-.17,1-.51,1.34s-.79.51-1.35.51-1.02-.17-1.37-.51-.52-.78-.52-1.34v-3.88h.87v3.88c0,.34.09.61.26.79.18.19.43.28.75.28Z"/>
    <path class="st0" d="M495.87,127.2h-1.05l-1.82-4.5v4.5h-.76v-5.64h1.05l1.83,4.51v-4.51h.76v5.64h0Z"/>
    <path class="st0" d="M501.11,126.45v.75h-3.69v-.75h1.42v-4.13h-1.4v-.76h3.64v.76h-1.4v4.13h1.42,0Z"/>
    <path class="st0" d="M506.38,121.56l-1.55,5.64h-1.23l-1.55-5.64h.9l1.28,4.95,1.28-4.95h.88Z"/>
    <path class="st0" d="M508.68,126.45h2.51v.75h-3.38v-5.64h3.38v.76h-2.51v1.64h2.13v.76h-2.13v1.73Z"/>
    <path class="st0" d="M513.74,124.89v2.31h-.87v-5.64h1.89c.57,0,1.02.15,1.35.43.33.29.5.69.5,1.2,0,.4-.1.74-.29,1.01s-.47.46-.83.57l1.32,2.43h-.98l-1.21-2.31h-.9,0ZM515.75,123.21c0-.28-.09-.51-.26-.66-.17-.16-.42-.23-.72-.23h-1.02v1.82h1.02c.31,0,.56-.08.73-.24.17-.16.26-.39.26-.68h0Z"/>
    <path class="st0" d="M521.77,125.69c0,.48-.17.87-.51,1.16s-.79.43-1.36.43c-.32,0-.65-.05-.98-.14-.34-.09-.64-.22-.91-.39l.37-.69c.27.16.54.28.79.36.25.08.5.11.75.11.31,0,.55-.07.72-.2s.26-.33.26-.59c0-.19-.07-.35-.21-.5s-.44-.32-.91-.52c-.31-.14-.55-.25-.69-.34-.15-.09-.27-.18-.38-.27-.17-.15-.29-.32-.37-.5-.08-.18-.12-.39-.12-.61,0-.45.16-.82.48-1.11.32-.28.74-.43,1.26-.43.3,0,.6.04.89.12.29.08.57.2.85.36l-.34.69c-.25-.14-.49-.24-.72-.31-.23-.07-.45-.1-.67-.1-.28,0-.49.07-.65.2s-.24.31-.24.53c0,.19.07.35.21.49.14.14.44.32.91.53.31.15.54.26.69.34.15.08.27.17.38.26.17.15.3.32.38.5s.12.38.12.6h0Z"/>
    <path class="st0" d="M526.79,126.45v.75h-3.69v-.75h1.42v-4.13h-1.4v-.76h3.64v.76h-1.4v4.13h1.42,0Z"/>
    <path class="st0" d="M530.29,122.31v4.88h-.86v-4.88h-1.67v-.76h4.2v.76h-1.67Z"/>
    <path class="st0" d="M535.33,125.01v2.18h-.87v-2.18l-1.77-3.46h.92l1.3,2.64,1.29-2.64h.87l-1.76,3.46Z"/>
    <path class="st0" d="M490.62,134.85c0,.93-.18,1.65-.54,2.14-.36.49-.87.74-1.55.74s-1.21-.24-1.56-.73c-.35-.49-.52-1.22-.52-2.2,0-.93.18-1.64.54-2.14s.87-.74,1.53-.74c.7,0,1.22.24,1.56.73.35.49.52,1.22.52,2.2h0ZM487.36,134.8c0,.74.1,1.29.29,1.64.19.35.49.52.9.52s.71-.17.9-.51.29-.87.29-1.59-.1-1.27-.29-1.62-.49-.53-.9-.53-.71.17-.9.51-.28.87-.28,1.59Z"/>
    <path class="st0" d="M493.23,135.25v2.39h-.86v-5.64h3.37v.76h-2.51v1.73h2.13v.76s-2.13,0-2.13,0Z"/>
    <path class="st0" d="M503.93,134.85c0,.93-.18,1.65-.54,2.14-.36.49-.87.74-1.55.74s-1.21-.24-1.56-.73c-.35-.49-.52-1.22-.52-2.2,0-.93.18-1.64.54-2.14s.87-.74,1.53-.74c.7,0,1.22.24,1.56.73.35.49.52,1.22.52,2.2ZM500.66,134.8c0,.74.1,1.29.29,1.64s.49.52.9.52.71-.17.9-.51.29-.87.29-1.59-.1-1.27-.29-1.62c-.19-.35-.49-.53-.9-.53s-.71.17-.9.51c-.19.34-.28.87-.28,1.59Z"/>
    <path class="st0" d="M508.84,136.14c0,.48-.17.87-.51,1.16s-.79.43-1.36.43c-.32,0-.65-.05-.98-.14-.34-.09-.64-.22-.91-.39l.37-.69c.27.16.54.28.79.36.25.08.5.11.75.11.31,0,.55-.07.72-.2s.26-.33.26-.59c0-.19-.07-.35-.21-.5s-.44-.32-.91-.52c-.31-.14-.55-.25-.69-.34-.15-.09-.27-.18-.38-.27-.17-.15-.29-.32-.37-.5-.08-.18-.12-.39-.12-.61,0-.45.16-.82.48-1.11.32-.28.74-.43,1.26-.43.3,0,.6.04.89.12.29.08.57.2.85.36l-.34.69c-.25-.14-.49-.24-.72-.31-.23-.07-.45-.1-.67-.1-.28,0-.49.07-.65.2s-.24.31-.24.53c0,.19.07.35.21.49.14.14.44.32.91.53.31.15.54.26.69.34.15.08.27.17.38.26.17.15.3.32.38.5s.12.38.12.6h0Z"/>
    <path class="st0" d="M512.32,132.76v4.88h-.86v-4.88h-1.67v-.76h4.2v.76h-1.67Z"/>
    <path class="st0" d="M516.31,135.34v2.31h-.87v-5.64h1.89c.57,0,1.02.15,1.35.43.33.29.5.69.5,1.2,0,.4-.1.74-.29,1.01s-.47.46-.83.57l1.32,2.43h-.98l-1.21-2.31h-.9,0ZM518.31,133.65c0-.28-.09-.51-.26-.66s-.41-.23-.72-.23h-1.02v1.82h1.02c.31,0,.56-.08.73-.24.17-.16.26-.39.26-.68h0Z"/>
    <path class="st0" d="M524.97,137.64h-.88l-.41-1.5h-1.91l-.41,1.5h-.85l1.62-5.64h1.23l1.62,5.64h0ZM522.72,132.63l-.76,2.78h1.52l-.75-2.78h0Z"/>
    <path class="st0" d="M529.74,132l-1.55,5.64h-1.23l-1.55-5.64h.9l1.28,4.95,1.28-4.95h.88Z"/>
    <path class="st0" d="M534.66,137.64h-.88l-.41-1.5h-1.91l-.41,1.5h-.85l1.62-5.64h1.23l1.62,5.64ZM532.41,132.63l-.76,2.78h1.52l-.75-2.78h0Z"/>
  </g>
  <g>
    <path class="st4" d="M378.98,115.18v-2.87h-3.43v-3.54h-3.5v3.54s-2.4,0-2.4,0v2.87h2.4v6.33c0,.67.06,1.3.19,1.88.12.59.36,1.11.7,1.57.34.45.8.82,1.38,1.08.58.26,1.34.39,2.25.39.38,0,.79-.03,1.21-.1.42-.07.79-.16,1.1-.27l.04-.02-.12-2.83-.09.04c-.21.09-.44.16-.7.21-.26.05-.51.07-.73.07-.73,0-1.21-.19-1.41-.57-.21-.39-.32-.89-.32-1.48v-6.3h3.43,0Z"/>
    <path class="st4" d="M314.88,117.79c.09-.92.48-1.68,1.16-2.27.7-.61,1.56-.91,2.57-.91.54,0,1.02.09,1.42.27.4.18.73.42.99.71.26.3.45.64.57,1.03.12.37.18.77.18,1.17h-6.89,0ZM323.42,113.8c-.6-.62-1.31-1.1-2.12-1.41s-1.71-.48-2.67-.48c-1.03,0-2,.18-2.89.53s-1.67.86-2.32,1.5c-.65.64-1.17,1.43-1.54,2.33-.37.91-.56,1.93-.56,3.04s.19,2.15.56,3.04c.37.89.9,1.65,1.56,2.26.66.61,1.45,1.09,2.35,1.43s1.89.5,2.96.5c2.58,0,4.58-.93,5.93-2.77l.04-.05-2.39-1.91-.04.06c-.37.54-.86.97-1.43,1.28-.58.31-1.3.46-2.14.46-.48,0-.96-.09-1.41-.25-.45-.17-.86-.4-1.21-.69-.36-.29-.64-.64-.85-1.04-.2-.38-.33-.81-.37-1.26h10.41v-.06c.03-.15.04-.31.04-.47v-.46c0-1.24-.17-2.34-.5-3.26-.33-.93-.81-1.71-1.4-2.34"/>
    <path class="st4" d="M302.85,116.27c.31-.41.7-.75,1.17-1,.46-.25,1.01-.38,1.63-.38.54,0,1.08.13,1.6.38.52.25.92.57,1.17.94l.04.06,2.4-2.1.05-.04-.04-.05c-.56-.67-1.32-1.21-2.27-1.59-.95-.38-1.94-.58-2.95-.58s-1.98.17-2.86.52c-.89.34-1.68.84-2.35,1.47-.67.63-1.21,1.41-1.6,2.31-.39.9-.59,1.92-.59,3.02s.2,2.18.59,3.08c.39.9.93,1.67,1.61,2.31.68.63,1.48,1.12,2.39,1.44.91.32,1.88.49,2.89.49s2-.17,2.89-.5c.89-.33,1.63-.82,2.21-1.43l.04-.05-2.19-2.22-.05-.05-.04.06c-.32.39-.74.69-1.26.9-.52.21-1.05.31-1.58.31-.63,0-1.2-.13-1.67-.38-.48-.25-.88-.59-1.19-1-.32-.41-.56-.88-.72-1.39-.16-.51-.24-1.04-.24-1.57s.08-1.05.23-1.57c.15-.51.38-.98.69-1.39"/>
    <path class="st4" d="M351.6,113.65c-.41-.52-.95-.94-1.59-1.26-.64-.32-1.43-.48-2.33-.48-1.04,0-1.95.27-2.71.8-.71.49-1.23,1.06-1.54,1.7v-2.1h-3.38v13.83h3.55v-7.6c0-.45.07-.9.2-1.34.13-.44.32-.83.57-1.17.25-.33.58-.61.96-.82.39-.21.86-.32,1.4-.32s.97.11,1.29.33c.32.22.58.51.76.85.19.34.31.74.36,1.16.06.43.09.85.09,1.25v7.66h3.55v-8.63c0-.71-.1-1.4-.29-2.07-.19-.67-.5-1.27-.91-1.79"/>
    <path class="st4" d="M331.31,114.95c.45-.22.95-.34,1.49-.34.61,0,1.19.15,1.71.43.52.29.94.63,1.24,1.02l.04.05,2.32-2.06-.04-.05c-.56-.71-1.32-1.25-2.27-1.59-.95-.34-1.93-.52-2.92-.52-.69,0-1.37.09-2.01.26-.65.17-1.24.44-1.76.79-.52.36-.94.82-1.26,1.38-.32.56-.48,1.23-.48,2,0,.66.12,1.21.35,1.66.23.45.54.82.93,1.12.38.3.83.54,1.32.72.49.18.99.33,1.51.45,1.04.24,1.82.49,2.34.74.5.24.75.62.75,1.17,0,.29-.06.54-.19.74-.13.2-.3.36-.51.48-.21.12-.45.21-.7.26-.25.06-.5.08-.74.08-.73,0-1.4-.16-2-.48-.6-.32-1.09-.72-1.46-1.21l-.04-.06-2.35,2.2.04.05c.67.73,1.52,1.29,2.54,1.69s2.07.59,3.14.59c.74,0,1.47-.08,2.17-.24.7-.16,1.32-.43,1.85-.8.53-.37.96-.85,1.28-1.44.32-.59.48-1.31.48-2.16,0-.67-.14-1.26-.41-1.73-.27-.47-.63-.87-1.06-1.19-.43-.32-.92-.57-1.44-.76-.52-.19-1.05-.35-1.56-.46-.96-.23-1.7-.45-2.2-.67-.48-.21-.72-.56-.72-1.07s.21-.87.65-1.08"/>
    <path class="st4" d="M358.28,117.79c.09-.92.48-1.68,1.16-2.27.7-.61,1.56-.91,2.57-.91.54,0,1.02.09,1.42.27s.73.42.99.71c.26.3.45.64.57,1.03.12.37.18.77.18,1.17h-6.89,0ZM366.83,113.8c-.6-.62-1.31-1.1-2.12-1.41s-1.71-.48-2.67-.48c-1.03,0-2,.18-2.89.53s-1.67.86-2.32,1.5c-.65.64-1.17,1.43-1.54,2.33-.37.91-.56,1.93-.56,3.04s.19,2.15.56,3.04c.37.89.9,1.65,1.56,2.26.66.61,1.45,1.09,2.35,1.43s1.89.5,2.96.5c2.58,0,4.58-.93,5.93-2.77l.04-.05-2.39-1.91-.04.06c-.37.54-.86.97-1.43,1.28-.58.31-1.3.46-2.14.46-.48,0-.96-.09-1.41-.25-.45-.17-.86-.4-1.21-.69-.36-.29-.64-.64-.85-1.04-.2-.38-.33-.81-.37-1.26h10.41v-.06c.03-.15.04-.31.04-.47v-.46c0-1.24-.17-2.34-.5-3.26-.33-.93-.81-1.71-1.4-2.34"/>
    <rect class="st4" x="333.63" y="131.86" width="3.56" height="3.56"/>
    <rect class="st4" x="327.92" y="131.86" width="3.56" height="3.56"/>
    <rect class="st4" x="322.2" y="135.42" width="3.56" height="3.56"/>
    <rect class="st4" x="316.49" y="135.42" width="3.56" height="3.56"/>
    <rect class="st4" x="310.77" y="135.42" width="3.56" height="3.56"/>
    <rect class="st4" x="299.34" y="131.86" width="3.56" height="3.56"/>
    <rect class="st4" x="305.05" y="131.86" width="3.56" height="3.56"/>
  </g>
  <g class="st2">
    <text class="st3" transform="translate(40.08 28.66)"><tspan x="0" y="0">e-INFRA CZ</tspan></text>
    <text class="st1" transform="translate(40.08 46.66)"><tspan x="0" y="0">CERI</tspan></text>
    <text class="st1" transform="translate(66.1 46.66)"><tspan x="0" y="0">T</tspan></text>
    <text class="st1" transform="translate(71.44 46.66)"><tspan x="0" y="0">-SC, with CESNET and IT4Innovations, a</tspan></text>
    <text class="st1" transform="translate(286.91 46.66)"><tspan x="0" y="0">r</tspan></text>
    <text class="st1" transform="translate(290.91 46.66)"><tspan x="0" y="0">e </tspan></text>
    <text class="st1" transform="translate(40.08 61.06)"><tspan x="0" y="0">th</tspan></text>
    <text class="st1" transform="translate(50.98 61.06)"><tspan x="0" y="0">r</tspan></text>
    <text class="st1" transform="translate(54.99 61.06)"><tspan x="0" y="0">ee e-Infrastructu</tspan></text>
    <text class="st1" transform="translate(143.27 61.06)"><tspan x="0" y="0">r</tspan></text>
    <text class="st1" transform="translate(147.28 61.06)"><tspan x="0" y="0">es that constitute the national </tspan></text>
    <text class="st1" transform="translate(40.08 75.46)"><tspan x="0" y="0">e-INFRA CZ </tspan></text>
    <text class="st1" transform="translate(107.66 75.46)"><tspan x="0" y="0">r</tspan></text>
    <text class="st1" transform="translate(111.67 75.46)"><tspan x="0" y="0">esea</tspan></text>
    <text class="st1" transform="translate(136.36 75.46)"><tspan x="0" y="0">r</tspan></text>
    <text class="st1" transform="translate(140.36 75.46)"><tspan x="0" y="0">ch infrastructu</tspan></text>
    <text class="st1" transform="translate(216.85 75.46)"><tspan x="0" y="0">r</tspan></text>
    <text class="st1" transform="translate(220.86 75.46)"><tspan x="0" y="0">e.</tspan></text>
  </g>
  <g class="st2">
    <text class="st3" transform="translate(550.57 30.8)"><tspan x="0" y="0">e-INFRA CZ Support</tspan></text>
    <text class="st1" transform="translate(550.57 48.8)"><tspan x="0" y="0">Available non-stop</tspan></text>
    <text class="st1" transform="translate(550.57 63.2)"><tspan x="0" y="0">e-mail: support@e-infra.cz</tspan></text>
    <text class="st1" transform="translate(550.57 77.6)"><tspan x="0" y="0">tel: +420 234 680 222</tspan></text>
  </g>
  <g>
    <path d="M454.8,56.78c-.17.08-.35.13-.57.13s-.39-.04-.56-.11c-.17-.07-.31-.17-.42-.3s-.21-.28-.27-.46-.1-.38-.1-.6c0-.21.03-.4.1-.57.07-.18.16-.33.28-.46.12-.13.27-.23.43-.31.17-.07.36-.11.56-.11.16,0,.33.03.49.1.17.07.31.17.41.31l.54-.43c-.08-.1-.17-.19-.29-.27s-.23-.14-.36-.19c-.13-.05-.26-.09-.4-.11s-.27-.04-.4-.04c-.31,0-.59.05-.85.15s-.49.24-.68.42c-.19.18-.34.4-.46.65-.11.26-.17.54-.17.86s.05.59.16.85c.1.26.25.48.44.66s.41.33.67.43c.26.1.55.15.86.15.34,0,.64-.06.89-.18.25-.12.47-.29.65-.51l-.57-.4c-.1.14-.23.25-.4.33h0Z"/>
    <polygon points="460.25 54.11 460.25 53.47 457.28 53.47 457.28 54.09 459.41 54.09 457.25 56.8 457.25 57.44 460.29 57.44 460.29 56.81 458.08 56.81 460.25 54.11"/>
    <rect x="420.63" y="42.5" width="1.89" height="7.78"/>
    <polygon points="431.06 47.57 431.03 47.57 427.91 42.5 425.77 42.5 425.77 50.28 427.59 50.28 427.55 45.19 427.58 45.19 430.71 50.28 432.84 50.28 432.84 42.5 431.02 42.5 431.06 47.57"/>
    <polygon points="436.09 50.28 437.95 50.28 437.95 47.26 440.96 47.26 440.96 45.71 437.95 45.71 437.95 44.1 441.21 44.1 441.21 42.5 436.09 42.5 436.09 50.28"/>
    <path d="M449.58,46.18c.29-.36.43-.8.43-1.33,0-.45-.08-.82-.25-1.12-.17-.3-.39-.54-.68-.72s-.6-.31-.96-.39c-.36-.08-.72-.12-1.09-.12h-2.97v7.78h1.83v-3.09h.64l1.69,3.09h2.2l-2.03-3.33c.5-.15.9-.41,1.19-.77h0ZM448.03,45.37c-.08.12-.19.22-.33.29-.13.07-.28.11-.44.14-.16.03-.32.04-.47.04h-.89v-1.81h1c.14,0,.29.01.44.03s.29.06.41.13c.12.06.22.15.3.26s.12.26.12.44c0,.2-.04.36-.13.48h0Z"/>
    <path d="M454.66,48.75h3.01l.6,1.53h2.09l-3.23-7.78h-1.82l-3.26,7.78h2.04l.57-1.53ZM456.18,44.57l.97,2.67h-1.96l.99-2.67Z"/>
    <path d="M412.32,38.98c-.34,0-.67.02-1,.07-.81-3.03-3.58-5.28-6.87-5.28-3.92,0-7.11,3.19-7.11,7.11,0,2.56,1.36,4.81,3.4,6.06-.53.99-.83,2.12-.83,3.32,0,3.92,3.19,7.11,7.11,7.11,2.92,0,5.43-1.77,6.53-4.29,3.34-.58,5.88-3.5,5.88-7.01,0-3.92-3.19-7.11-7.11-7.11h0ZM407.63,47.61c.1.17.24.31.4.43.16.12.34.22.54.29.2.07.41.1.62.1.38,0,.7-.07.97-.21.26-.14.48-.33.65-.55l1.68,1.06c-.34.5-.8.88-1.36,1.15-.56.27-1.22.4-1.96.4-.55,0-1.07-.09-1.56-.26-.49-.17-.92-.42-1.29-.75-.37-.33-.66-.73-.87-1.21-.21-.48-.32-1.03-.32-1.65s.1-1.14.31-1.62c.21-.49.48-.9.84-1.24.35-.34.77-.6,1.25-.79.48-.19,1-.28,1.56-.28s1.03.09,1.49.27.84.44,1.16.79c.32.34.58.76.76,1.25s.27,1.05.27,1.68v.29c0,.1,0,.19-.02.28h-5.31c.02.21.08.39.18.56h0ZM411.02,40.89c0,.14,0,.29-.01.43-.67.19-1.28.51-1.81.94.12-.43.19-.89.19-1.36,0-.22-.02-.44-.05-.66.49-.25,1.01-.44,1.56-.56.07.4.11.8.11,1.22ZM397.87,40.89c0-3.63,2.95-6.58,6.58-6.58,3.02,0,5.58,2.05,6.34,4.84-.54.12-1.06.3-1.55.53-.54-2.15-2.48-3.74-4.8-3.74-2.73,0-4.94,2.21-4.94,4.94,0,1.86,1.02,3.47,2.53,4.32-.39.38-.74.82-1.03,1.28-1.88-1.16-3.13-3.24-3.13-5.6h0ZM404.88,45.81c-.72.35-1.35.87-1.83,1.5-.56-.12-1.09-.31-1.59-.56.3-.48.67-.91,1.08-1.3.58.24,1.22.38,1.9.38.15,0,.29,0,.44-.02h0ZM407.02,56.85c-3.63,0-6.58-2.95-6.58-6.58,0-1.1.27-2.14.76-3.06.48.25,1,.44,1.54.58-.42.73-.67,1.58-.67,2.48,0,2.73,2.21,4.94,4.94,4.94,1.68,0,3.17-.84,4.06-2.12.4.07.82.11,1.24.11.2,0,.4,0,.6-.03-1.07,2.17-3.31,3.67-5.9,3.67h0ZM413.16,52.61c-.28.04-.56.05-.85.05-.32,0-.63-.02-.94-.07.26-.48.44-1.01.52-1.57.14.01.28.02.43.02.42,0,.84-.05,1.23-.15-.06.6-.19,1.17-.4,1.71h0ZM413.77,52.5c.19-.57.31-1.16.34-1.78,1.57-.6,2.76-1.99,3.09-3.67h-3.28v-1.52h3.34c-.28-2.47-2.38-4.39-4.93-4.39-.27,0-.53.02-.78.06,0-.1,0-.2,0-.31,0-.45-.04-.89-.12-1.31.29-.04.58-.06.88-.06,3.63,0,6.58,2.95,6.58,6.58,0,3.13-2.19,5.75-5.12,6.41h0Z"/>
    <path d="M409.1,44.15c-.24,0-.45.04-.65.11-.2.07-.37.17-.51.3-.15.13-.27.28-.35.45-.09.17-.14.35-.15.54h3.1c0-.38-.12-.71-.36-.99s-.6-.41-1.08-.41h0Z"/>
  </g>
  <line class="st5" y1="95.72" x2="715" y2="95"/>
</svg>